<svg xmlns="http://www.w3.org/2000/svg" width="174.582" height="32.455" viewBox="0 0 174.582 32.455">
    <g id="RedisLogo">
      <path id="Path_10331" data-name="Path 10331" d="M19537.5,3022.836v-4.406l3.045-1.19-3.045-1.392v-4.373l3.045-1.157-3.045-1.392v-4.373l16.818-6.556,4.838,1.886v28.38l-4.838,2.189Zm22.846-15.234v-4.075l4.834,1.891v20.1l-4.834,2.184Zm6.023,5.563v-4.07l4.838,1.886V3022.8l-4.838,2.184Z" transform="translate(-19537.502 -2997.999)" fill="#dc382d"/>
      <path id="Path_10330" data-name="Path 10330" d="M19537.5,3020.95v-4.406l16.822,7.617v-2.515l-16.822-7.684v-4.373l16.822,7.617v-2.515l-16.822-7.65v-4.373l16.822,7.617v-10.1l4.834-2.189v28.38l-4.834,2.189Zm22.85-15.234,4.834-2.184v20.1l-4.834,2.188Zm6.023,5.563,4.838-2.184v11.821l-4.838,2.184Z" transform="translate(-19537.5 -2996.112)" fill="#a32321"/>
  </g>
</svg>
