<?xml version="1.0" standalone="no"?>
<!DOCTYPE svg PUBLIC "-//W3C//DTD SVG 20010904//EN"
 "http://www.w3.org/TR/2001/REC-SVG-20010904/DTD/svg10.dtd">
<svg version="1.0" xmlns="http://www.w3.org/2000/svg"
 width="992.000000pt" height="992.000000pt" viewBox="0 0 992.000000 992.000000"
 preserveAspectRatio="xMidYMid meet">
<metadata>
Created by potrace 1.14, written by Peter Selinger 2001-2017
</metadata>
<g transform="translate(0.000000,992.000000) scale(0.100000,-0.100000)"
fill="#000000" stroke="none">
<path d="M8128 9888 c-98 -128 -303 -289 -458 -360 -65 -30 -158 -70 -170 -73
-3 0 -41 -13 -86 -28 -44 -15 -90 -29 -103 -32 -12 -2 -56 -13 -98 -25 -42
-11 -88 -23 -102 -25 -14 -2 -64 -13 -111 -24 -47 -11 -98 -22 -115 -25 -23
-5 -196 -44 -355 -80 -8 -2 -35 -9 -60 -16 -25 -7 -54 -14 -65 -16 -12 -2 -46
-12 -78 -23 -31 -11 -57 -18 -57 -15 0 3 -10 -1 -22 -8 -13 -6 -31 -13 -40
-15 -34 -6 -225 -85 -321 -134 -345 -173 -575 -423 -687 -745 -48 -139 -72
-277 -74 -421 -1 -46 -5 -83 -9 -83 -5 0 -5 -6 -1 -12 5 -7 9 -31 11 -53 2
-22 8 -61 14 -86 6 -26 12 -53 13 -60 2 -8 8 -27 14 -42 7 -16 12 -34 13 -40
0 -7 15 -43 33 -80 l33 -69 34 29 c55 45 72 60 124 108 28 25 53 45 56 45 3 0
15 8 27 18 54 46 63 52 72 52 5 0 13 6 17 13 8 13 189 128 283 180 99 55 185
97 196 97 7 0 14 4 16 8 2 4 44 25 93 46 50 21 108 47 131 57 22 10 65 27 95
39 30 11 63 25 74 30 72 34 255 107 255 101 0 -3 4 -1 8 4 4 6 34 21 67 34
108 43 268 119 370 175 10 6 25 17 33 24 7 6 18 12 23 12 6 0 25 11 43 25 18
14 38 25 44 25 6 0 12 3 14 8 2 4 30 27 63 52 91 68 92 68 199 176 110 109
136 139 136 154 0 6 4 10 9 10 4 0 25 25 45 55 36 54 49 64 61 45 5 -8 -31
-72 -63 -110 -7 -8 -49 -67 -94 -130 -44 -63 -85 -116 -89 -118 -5 -2 -9 -8
-9 -12 0 -20 -217 -244 -282 -292 -20 -15 -42 -33 -50 -40 -7 -7 -30 -24 -50
-38 -21 -14 -38 -28 -38 -32 0 -5 -4 -8 -9 -8 -12 0 -105 -61 -109 -72 -2 -4
-12 -8 -22 -8 -10 0 -20 -4 -22 -8 -4 -10 -224 -134 -234 -132 -4 1 -10 -2
-13 -7 -3 -5 -80 -45 -171 -91 -181 -90 -241 -122 -431 -229 -189 -107 -494
-318 -634 -438 -131 -112 -358 -332 -460 -445 -74 -83 -175 -209 -175 -220 0
-5 -4 -10 -9 -10 -5 0 -18 -15 -29 -32 -12 -18 -38 -58 -60 -89 -21 -31 -42
-63 -46 -70 -3 -8 -15 -27 -26 -44 -10 -16 -48 -87 -82 -157 -35 -70 -65 -128
-68 -128 -3 0 -27 28 -55 63 -27 34 -59 71 -70 83 -11 11 -49 54 -85 95 -65
73 -241 251 -296 299 -203 177 -384 303 -606 424 -29 15 -60 34 -69 42 -8 8
-19 14 -23 14 -6 0 -103 55 -226 129 -19 11 -42 24 -50 28 -17 8 -215 127
-272 164 -104 67 -274 204 -363 294 -99 99 -235 263 -235 283 0 6 -4 12 -8 14
-15 6 -152 254 -152 275 0 12 34 -24 57 -59 27 -43 30 -48 107 -140 75 -91
176 -188 256 -248 18 -14 39 -31 46 -37 7 -7 16 -13 21 -13 4 0 21 -11 37 -25
16 -14 33 -25 37 -25 4 0 14 -6 21 -12 19 -18 92 -57 238 -129 69 -33 132 -65
140 -70 8 -5 22 -12 30 -15 8 -3 33 -14 55 -24 84 -39 197 -90 200 -90 2 0 34
-14 72 -32 37 -18 70 -33 73 -33 22 -4 301 -153 378 -202 29 -18 56 -33 61
-33 5 0 11 -3 13 -7 2 -5 30 -26 63 -47 58 -38 210 -152 250 -189 11 -10 53
-49 93 -87 41 -39 79 -70 86 -70 24 0 72 130 101 271 25 123 25 351 0 464 -37
163 -68 252 -128 370 -60 115 -135 220 -232 324 -47 50 -85 88 -85 85 0 -5
-18 9 -48 37 -62 59 -244 163 -382 219 -30 12 -68 28 -85 35 -16 7 -41 16 -55
20 -14 3 -34 10 -45 15 -48 20 -368 106 -498 135 -12 2 -40 9 -62 14 -22 5
-53 12 -70 15 -16 3 -66 15 -110 27 -44 11 -84 22 -90 23 -64 15 -259 84 -297
106 -10 6 -23 10 -29 10 -6 0 -25 10 -42 22 -18 13 -34 22 -37 22 -8 -3 -83
37 -98 52 -7 8 -19 14 -27 14 -7 0 -15 3 -17 8 -2 4 -28 26 -60 50 -69 53
-169 152 -211 210 -17 23 -34 42 -39 42 -10 0 -57 -93 -104 -206 -60 -146
-115 -321 -140 -449 -2 -11 -6 -31 -9 -45 -2 -14 -7 -40 -10 -57 -3 -18 -7
-45 -9 -60 -15 -91 -20 -191 -21 -373 0 -241 9 -355 38 -495 2 -11 7 -38 11
-60 4 -22 18 -80 33 -130 14 -49 26 -94 28 -100 2 -10 8 -26 28 -80 7 -16 12
-32 12 -35 1 -3 9 -22 18 -44 9 -21 17 -41 17 -45 1 -5 40 -83 111 -217 14
-27 47 -80 72 -117 26 -38 47 -72 47 -78 0 -5 4 -9 8 -9 4 0 15 -12 24 -27 28
-48 148 -186 197 -227 14 -12 38 -34 55 -50 43 -39 206 -146 296 -193 116 -61
278 -123 386 -148 11 -2 37 -9 59 -15 22 -6 47 -11 55 -12 8 0 37 -4 65 -9
143 -26 369 -28 515 -4 90 15 131 25 152 36 10 5 18 7 18 5 0 -7 173 55 180
63 3 4 25 15 50 26 25 10 53 25 62 33 18 15 48 10 48 -8 0 -5 6 -10 14 -10 8
0 16 -4 18 -8 2 -5 39 -39 83 -77 123 -106 285 -277 285 -300 0 -5 6 -16 14
-24 58 -67 111 -221 125 -366 1 -11 565 -14 576 -4 3 3 6 157 7 342 0 185 4
358 9 384 7 45 10 63 23 122 29 131 134 330 243 461 67 80 225 230 242 230 9
0 21 -4 27 -9 22 -20 247 -107 302 -117 14 -3 30 -8 36 -12 6 -3 17 -7 26 -8
8 -1 26 -4 40 -7 253 -53 535 -51 800 5 64 14 53 11 110 27 25 7 53 15 62 16
9 2 27 9 40 16 13 7 23 11 23 9 0 -4 44 9 70 20 11 5 54 23 95 40 117 49 227
109 331 182 209 145 367 316 517 555 85 135 213 403 194 403 -4 0 -2 4 3 8 12
8 26 48 60 177 24 90 30 120 41 185 3 19 7 46 10 60 27 146 26 512 -1 685 -3
17 -6 44 -9 60 -8 58 -20 125 -36 195 -6 25 -13 55 -15 68 -6 24 -54 169 -79
240 -19 50 -81 180 -129 270 l-34 63 -25 -33z"/>
<path d="M1990 5018 c-120 -49 -174 -93 -222 -182 -31 -57 -33 -204 -3 -256
10 -19 18 -38 17 -41 -1 -4 23 -29 52 -55 68 -62 86 -76 86 -69 0 3 10 -1 23
-9 12 -8 45 -18 72 -23 28 -5 1357 -8 2955 -8 2399 1 2915 4 2963 15 31 7 57
16 57 20 0 4 14 13 30 20 42 17 96 75 128 135 36 69 38 196 4 268 -30 65 -101
133 -170 165 l-57 27 -2955 2 c-2011 1 -2963 -2 -2980 -9z"/>
<path d="M2351 4095 c5 -25 11 -67 15 -93 3 -26 8 -50 10 -54 2 -3 7 -30 10
-59 3 -29 10 -63 15 -77 5 -14 8 -27 5 -29 -2 -3 0 -19 5 -36 5 -18 12 -54 15
-82 4 -27 8 -53 10 -56 2 -4 6 -24 9 -45 6 -36 31 -181 41 -229 2 -11 6 -33 8
-50 3 -16 10 -55 16 -85 6 -30 12 -66 15 -80 2 -14 16 -92 31 -175 27 -154 30
-168 38 -220 3 -16 10 -52 16 -80 5 -27 12 -63 15 -80 6 -40 11 -73 19 -115 4
-19 11 -60 16 -90 17 -97 20 -114 25 -140 8 -38 26 -141 32 -175 2 -16 7 -41
9 -55 3 -14 6 -34 8 -45 2 -11 6 -36 10 -55 3 -19 8 -48 11 -65 3 -16 13 -68
21 -115 9 -47 17 -92 18 -100 1 -8 6 -33 11 -55 4 -22 9 -49 10 -60 1 -11 5
-31 8 -45 4 -14 9 -41 12 -60 5 -38 10 -68 25 -145 5 -27 12 -66 14 -85 3 -19
8 -46 11 -60 9 -42 36 -193 40 -225 3 -16 7 -41 10 -55 10 -48 15 -75 21 -110
5 -34 22 -132 30 -177 2 -12 16 -54 30 -95 14 -40 28 -81 31 -90 3 -10 9 -18
14 -18 5 0 9 -5 9 -11 0 -15 59 -100 91 -129 63 -59 87 -77 144 -102 68 -31
87 -36 141 -44 60 -8 369 -8 382 0 7 4 12 3 12 -3 0 -7 8 -7 24 -1 13 5 27 6
30 3 8 -8 562 -7 575 1 6 4 11 3 11 -3 0 -7 8 -7 24 -1 13 5 27 6 30 3 8 -8
562 -7 575 1 6 4 11 3 11 -3 0 -7 8 -7 24 -1 13 5 27 6 30 3 8 -8 562 -7 575
1 6 4 11 3 11 -3 0 -7 8 -7 24 -1 13 5 27 6 30 3 6 -6 511 -6 626 0 138 7 277
84 365 202 25 33 45 64 45 69 0 5 6 17 14 25 15 18 61 150 70 202 6 37 12 67
22 112 3 16 7 38 9 50 2 12 6 38 9 57 4 19 8 49 10 67 3 18 7 36 9 40 4 7 11
47 22 128 1 11 3 20 4 20 1 0 4 12 6 26 6 44 14 90 29 174 9 44 18 97 22 119
3 21 8 48 10 60 7 31 23 117 29 151 2 17 7 46 11 65 3 19 7 45 9 57 2 12 6 34
9 50 8 34 12 55 21 113 4 25 9 54 11 65 2 11 7 34 9 50 10 54 34 189 40 220 7
34 15 81 19 110 2 11 6 34 9 50 4 17 9 45 12 63 7 43 14 82 20 112 3 14 8 45
11 69 3 25 7 48 9 51 2 4 7 22 10 41 3 19 10 59 15 89 5 30 12 73 16 95 3 22
7 42 9 45 2 3 6 26 10 50 3 25 24 144 46 265 22 121 42 235 44 252 3 18 9 53
15 78 6 26 8 51 5 56 -4 5 -2 9 2 9 5 0 10 15 12 33 4 40 9 72 11 72 2 0 7 27
14 77 6 40 21 123 50 280 8 37 11 70 8 73 -3 3 -1181 5 -2617 5 l-2612 0 8
-45z"/>
</g>
</svg>
